<svg xmlns="http://www.w3.org/2000/svg" width="1400" height="800" viewBox="0 0 1400 800"><rect width="1400" height="800" fill="#0e1117"/><text x="60" y="70" fill="#e6edf3" font-size="34" font-family="Arial" font-weight="bold">Neuro-Embedded Navigation Lab — ROS 2 + Gazebo System Graph</text><rect x="60" y="140" width="360" height="570" rx="26" fill="#151b23" stroke="#2d333b" stroke-width="2"/><text x="90" y="185" fill="#79c0ff" font-size="28" font-family="Arial" font-weight="bold">Gazebo Harmonic</text><rect x="90" y="220" width="300" height="130" rx="18" fill="#1f2937"/><text x="115" y="275" fill="#e6edf3" font-size="24" font-family="Arial">Arena + robot SDF</text><text x="115" y="310" fill="#9fb0c3" font-size="18" font-family="Arial">world, lidar, imu, diff drive</text><rect x="510" y="140" width="390" height="570" rx="26" fill="#151b23" stroke="#2d333b" stroke-width="2"/><text x="540" y="185" fill="#7ee787" font-size="28" font-family="Arial" font-weight="bold">ROS 2 Jazzy</text><rect x="540" y="220" width="330" height="110" rx="18" fill="#1f2937"/><text x="565" y="275" fill="#e6edf3" font-size="24" font-family="Arial">ros_gz_bridge</text><rect x="540" y="360" width="330" height="110" rx="18" fill="#1f2937"/><text x="565" y="415" fill="#e6edf3" font-size="24" font-family="Arial">sensor_fusion_node</text><rect x="540" y="500" width="330" height="110" rx="18" fill="#1f2937"/><text x="565" y="555" fill="#e6edf3" font-size="24" font-family="Arial">neuro_controller_node</text><rect x="980" y="140" width="330" height="570" rx="26" fill="#151b23" stroke="#2d333b" stroke-width="2"/><text x="1010" y="185" fill="#ffa657" font-size="28" font-family="Arial" font-weight="bold">Research layer</text><rect x="1010" y="220" width="270" height="130" rx="18" fill="#1f2937"/><text x="1035" y="275" fill="#e6edf3" font-size="24" font-family="Arial">benchmark core</text><rect x="1010" y="390" width="270" height="130" rx="18" fill="#1f2937"/><text x="1035" y="445" fill="#e6edf3" font-size="24" font-family="Arial">docs + manuscript</text><line x1="420" y1="285" x2="540" y2="285" stroke="#58a6ff" stroke-width="5"/><line x1="870" y1="555" x2="980" y2="555" stroke="#f2cc60" stroke-width="5"/></svg>