<svg xmlns="http://www.w3.org/2000/svg" width="1400" height="760" viewBox="0 0 1400 760">
<rect width="1400" height="760" fill="#0d1117"/>
<g font-family="Arial, Helvetica, sans-serif" fill="#e6edf3">
<text x="60" y="70" font-size="34" font-weight="700">Neuro Embedded Navigation Lab — ROS 2 Control + Nav2 Stack</text>
<rect x="60" y="120" rx="18" ry="18" width="280" height="150" fill="#161b22" stroke="#30363d"/>
<text x="90" y="165" font-size="24" font-weight="700">Gazebo Harmonic</text><text x="90" y="205" font-size="18">World + obstacles + dynamic actors</text><text x="90" y="235" font-size="18">LiDAR, IMU, RGB, depth, bumper</text>
<rect x="400" y="120" rx="18" ry="18" width="280" height="150" fill="#161b22" stroke="#30363d"/>
<text x="430" y="165" font-size="24" font-weight="700">ros_gz_bridge</text><text x="430" y="205" font-size="18">/scan /imu /image /odom /clock</text><text x="430" y="235" font-size="18">Gazebo Transport ↔ ROS 2</text>
<rect x="740" y="120" rx="18" ry="18" width="280" height="150" fill="#161b22" stroke="#30363d"/>
<text x="770" y="165" font-size="24" font-weight="700">ros2_control</text><text x="770" y="205" font-size="18">controller_manager</text><text x="770" y="235" font-size="18">diff_drive + joint_state broadcaster</text>
<rect x="1080" y="120" rx="18" ry="18" width="260" height="150" fill="#161b22" stroke="#30363d"/>
<text x="1110" y="165" font-size="24" font-weight="700">Nav2</text><text x="1110" y="205" font-size="18">AMCL + planner + controller</text><text x="1110" y="235" font-size="18">BT navigator + costmaps</text>
<rect x="250" y="420" rx="18" ry="18" width="360" height="170" fill="#161b22" stroke="#30363d"/>
<text x="280" y="465" font-size="24" font-weight="700">Neuro Adaptive ROS Nodes</text><text x="280" y="505" font-size="18">sensor_fusion_node</text><text x="280" y="535" font-size="18">neuro_controller_node</text><text x="280" y="565" font-size="18">mission_supervisor_node</text>
<rect x="760" y="420" rx="18" ry="18" width="420" height="170" fill="#161b22" stroke="#30363d"/>
<text x="790" y="465" font-size="24" font-weight="700">Experiment Layer</text><text x="790" y="505" font-size="18">ros2 bag record</text><text x="790" y="535" font-size="18">experiment_logger_node → telemetry.csv / summary.json</text><text x="790" y="565" font-size="18">evaluate_ros_run.py → report JSON</text>
<line x1="340" y1="195" x2="400" y2="195" stroke="#58a6ff" stroke-width="4"/>
<line x1="680" y1="195" x2="740" y2="195" stroke="#58a6ff" stroke-width="4"/>
<line x1="1020" y1="195" x2="1080" y2="195" stroke="#58a6ff" stroke-width="4"/>
<line x1="880" y1="270" x2="880" y2="420" stroke="#f2cc60" stroke-width="4"/>
<line x1="520" y1="270" x2="430" y2="420" stroke="#7ee787" stroke-width="4"/>
</g></svg>
